<svg xmlns="http://www.w3.org/2000/svg" width="50" height="50" fill="none" viewBox="0 0 50 50">
    <circle cx="25" cy="25" r="25" fill="#FFBD27"/>
    <mask id="a" width="50" height="50" x="0" y="0" maskUnits="userSpaceOnUse">
        <circle cx="25" cy="25" r="25" fill="#FFBD27"/>
    </mask>
    <path fill="#202021" d="M25.422 12.588a2.116 2.116 0 0 1 4.23 0v4.235a2.116 2.116 0 0 1-4.23 0v-4.235zm-11.2 6.604a2.116 2.116 0 0 1 2.993-2.992l2.994 2.995a2.116 2.116 0 0 1-2.992 2.991l-2.994-2.994zM38.374 16.2a2.116 2.116 0 0 1 2.992 2.992l-2.994 2.994a2.116 2.116 0 0 1-2.992-2.991l2.994-2.995zM17.218 27.656a2.116 2.116 0 0 1 0 4.23h-4.235a2.116 2.116 0 0 1 0-4.23h4.235zM38.166 38.435l6.894-3.273c.7-.332.707-.895.027-1.263L26.06 23.618c-.68-.368-1.19-.041-1.138.73l1.43 21.239c.053.778.578 1.003 1.176.52l5.937-4.81 5.028 8.047a1.403 1.403 0 0 0 1.931.443l2.288-1.43a1.403 1.403 0 0 0 .449-1.93l-4.995-7.992z"/>
</svg>
