<svg xmlns="http://www.w3.org/2000/svg" width="119" height="29" fill="none" viewBox="0 0 119 29">
    <path fill="#B9B9B9" d="M4.56 28.653H0V.29l4.56.29v28.073zM9.757 2.261c1.428 0 2.618 1.159 2.618 2.55 0 1.41-1.17 2.55-2.618 2.55-1.427 0-2.617-1.159-2.617-2.55 0-1.391 1.17-2.55 2.617-2.55zm2.28 26.392h-4.56V8.424l4.56.251v19.978zm10.888-16.152v4.463h-3.431v11.67h-4.561V6.454C14.932 3.071 17.807 0 21.198 0c1.15 0 2.063.328 2.28.464L23.3 4.753h-2.102a1.7 1.7 0 0 0-1.685 1.7v6.048h3.41zm1.844 1.797c0-3.382 2.796-6.164 6.286-6.164 3.45 0 6.246 2.763 6.246 6.164v4.327c0 1.256-1.03 2.222-2.28 2.222h-5.711V22.8c0 .927.773 1.7 1.725 1.7h4.382l.14 3.787-4.125.618c-3.966.657-6.703-2.705-6.703-6.086l.04-8.52zm4.56 2.086h3.411v-2.086c0-.928-.773-1.7-1.685-1.7-.952 0-1.725.753-1.725 1.7v2.086zm11.899 12.27V.463h2.934v8.559c.813-.251 2.102-.367 2.975-.367 3.133 0 5.552 2.763 5.552 5.912v14.066h-2.875V14.568c0-1.546-1.289-2.782-2.875-2.782h-2.796v16.848l-2.915.02zm22.249-14.55c0-1.623-.773-2.917-2.875-2.705h.04c-1.17.04-2.678.174-3.947.252-.04-1.044-.08-1.45-.119-2.242.992-.367 2.42-.715 3.649-.753 3.688-.077 6.108 2.84 6.108 5.97v8.56c0 3.09-2.539 5.641-5.712 5.641-3.172 0-5.77-2.55-5.77-5.642v-1.758c0-3.091 2.161-5.43 5.77-5.43 1.369 0 2.063.136 2.836.368l.02-2.26zm0 9.12v-4.869H60.64c-1.586 0-2.836 1.217-2.836 2.763v2.087c0 1.545 1.25 2.801 2.836 2.801a2.779 2.779 0 0 0 2.836-2.782zM74.6 8.675c3.172 0 5.77 2.512 5.77 5.642v.367c-1.13.039-2.062.039-2.915.077v-.425c0-1.507-1.289-2.763-2.875-2.763-1.547 0-2.796 1.256-2.796 2.763v9.004c0 1.584 1.249 2.763 2.796 2.763 1.546 0 2.835-1.16 2.875-2.667 1.428.116 2.796.174 2.915.174-.139 2.976-2.717 5.372-5.77 5.372-3.173 0-5.751-2.512-5.751-5.642v-9.004c0-3.13 2.578-5.66 5.75-5.66zM82.69.541h2.935v28.112h-2.935V.541zm9.28 28.112L86.38 19.11c-.556-.928-.556-1.044.119-2.165l4.937-7.998h3.351l-5.552 9.216 6.009 10.472c-.04.02-3.272.02-3.272.02zm3.848-14.278c0-3.13 2.578-5.68 5.77-5.68 3.173 0 5.731 2.55 5.731 5.68v4.424c0 .831-.654 1.45-1.467 1.45h-7.1V23.3c0 1.546 1.25 2.802 2.836 2.802h3.708c.04.927.08 1.584.159 2.222l-3.53.54c-3.609.619-6.107-2.453-6.107-5.583v-8.907zm2.954 3.014h5.672v-3.034c0-1.545-1.289-2.801-2.836-2.801-1.586 0-2.836 1.256-2.836 2.801v3.034zm14.1 11.264h-2.935V14.607c0-3.13 2.498-6.048 6.187-5.97 1.249.038 2.022.328 2.875.714-.04.87-.079 1.585-.119 2.242l-3.193-.078c-1.546 0-2.796 1.623-2.796 3.092l-.019 14.046z"/>
</svg>
