<svg xmlns="http://www.w3.org/2000/svg" width="193" height="33" fill="none" viewBox="0 0 193 33">
    <path fill="#B9B9B9" d="M2.718 20.056V10.49H0V7.877l2.718-.356V4.26l5.866-.802v4.066h3.89v2.981h-3.89v9.07c0 1.704.487 2.577 2.207 2.577.612 0 1.447-.064 1.873-.15v2.213c-.94.54-2.95 1-4.808 1-3.496 0-5.135-1.5-5.135-5.158h-.003zM41.824 9.039c1.473 0 2.268.256 2.268 5.328l-4.916.28c.065-4.598.777-5.608 2.648-5.608zm-2.6 7.672h10.572c0-7.252-2.557-9.565-7.873-9.565-5.282 0-8.748 3.314-8.748 9.003 0 5.876 3.142 9.127 9.235 9.127 3.273 0 5.918-1.426 6.74-2.512v-1.682c-1.231.362-2.496.596-4.765.596-3.201 0-4.851-1.618-5.161-4.982v.015zM13.17 23.277l1.879-.843v-18.8l-1.978-.895v-1.57L20.384.02h.496v9.407h.197c1.595-1.405 3.737-2.283 6.119-2.283 2.994 0 4.48 1.452 4.48 4.62v10.668l1.9.845v1.59h-9.68v-1.59l1.901-.845v-9.375c0-1.754-.786-2.41-2.382-2.41-.874 0-1.704.155-2.425.438v11.349l1.9.847v1.59h-9.704v-1.596l-.015.002zM141.484 8.268v1.571l1.976.894v11.71l-1.884.852v1.597h9.665v-1.575l-1.883-.852V7.135h-.496l-7.378 1.148v-.015zm20.039 13.254v-4.67l-1.372.128c-1.366.128-2.485 1.012-2.485 2.666 0 1.906 1.075 2.534 2.207 2.534.656 0 1.322-.315 1.648-.66l.002.002zm-4.161-12.06l-1.245 3.526h-3.051V8.453c1.648-.498 3.656-1.312 6.766-1.312 4.731 0 7.574 1.363 7.574 5.238v10.05l1.879.852v1.303c-.577.302-1.883.687-3.31.687-1.847 0-3.503-.575-3.777-2.448h-.174c-.787 1.533-2.885 2.47-5.092 2.47-3.147 0-5.135-1.98-5.135-4.855 0-3.534 2.381-4.11 6.271-4.897l3.387-.575v-2.255c0-2.218-.699-3.321-2.95-3.321-.306 0-.852.038-1.202.072h.059zm12.404 13.812l1.879-.83v-11.71l-1.977-.895V8.285l7.314-1.129h.496v2.3h.197c1.595-1.406 3.736-2.278 6.118-2.278 2.994 0 4.48 1.447 4.48 4.62v10.667l1.901.852v1.597h-9.68v-1.576l1.901-.835v-9.451c0-1.755-.787-2.41-2.382-2.41-.874 0-1.705.155-2.426.438V22.43l1.88.847v1.59h-9.659V23.27l-.042.004zM133.272 3.643l-1.971-.873V1.194l7.373-1.15h.496v21.867l1.879 1.001v1.49l-6.993.788h-.48v-1.788h-.197c-.743.915-2.251 1.874-4.458 1.874-3.234 0-7.102-2.002-7.102-8.624 0-6.962 3.955-9.475 8.654-9.475.983 0 2.141.213 2.862.724V3.643h-.063zm0 18.183V10.135c-.459-.34-.94-.624-2.011-.624-1.844 0-3.256 1.618-3.256 6.494 0 4.271 1.115 6.132 3.449 6.132.907 0 1.416-.179 1.814-.336l.004.025zm-73.15 8.794c-3.221 0-4.327-1.107-4.327-2.3 0-.83.227-1.405.682-1.937h6.234c1.458 0 2.12.426 2.12 1.32.004 1.788-1.016 2.917-4.71 2.917zm.05-21.462c1.29 0 2.12.553 2.12 4.003 0 3.449-.833 3.809-2.1 3.809-1.268 0-2.085-.288-2.085-3.805 0-3.513.809-4.003 2.093-4.003l-.028-.004zm3.912 11.987h-6.338c-.677 0-1.245-.511-1.245-1.107 0-.469.35-.958.786-1.278.962.277 1.749.362 2.929.362 4.567 0 7.692-2.023 7.692-5.791 0-1.682-.721-2.64-1.858-3.62v-.128l2.929 1.001.393.021V7.133h-.328l-4.508.873h-.251c-1.123-.405-2.688-.83-4.109-.83-4.567 0-7.727 2.207-7.727 5.957 0 2.285 1.18 3.986 2.944 4.927v.18c-1.019.7-2.972 2.134-2.972 3.972 0 1.341.909 2.668 2.81 3.066v.185c-2 .404-4.24 1.043-4.24 3.279 0 2.3 3.42 4.003 8.995 4.003 6.928 0 9.926-2.598 9.926-6.707 0-3.386-1.923-4.961-5.835-4.961l.007.068zm44.383-12.86V9.86l1.988.895v11.71l-1.879.852v1.597h10.181v-1.576l-2.425-.852V12.84c1.005-.468 2.327-.626 3.911-.626.52 0 1.137.064 1.493.155V7.324c-.197-.063-.584-.093-.874-.093-1.945 0-3.534 1.22-4.572 3.534h-.175V7.12h-.502l-7.146 1.146v.019zm-8.13 13.264v-4.684l-1.354.128c-1.355.128-2.47 1.022-2.47 2.683 0 1.916 1.071 2.534 2.207 2.534.656 0 1.325-.32 1.648-.66h-.031zM96.164 9.477l-1.246 3.534h-3.06V8.454c1.661-.498 3.672-1.312 6.775-1.312 4.742 0 7.583 1.363 7.583 5.238v10.05l1.879.852v1.303c-.568.302-1.879.687-3.3.687-1.835 0-3.496-.575-3.758-2.448h-.175c-.787 1.533-2.885 2.47-5.079 2.47-3.14 0-5.113-1.98-5.113-4.855 0-3.534 2.397-4.11 6.285-4.897l3.404-.575v-2.255c0-2.218-.686-3.321-2.95-3.321-.295 0-.852.038-1.206.072l-.04.015zM71.82 10.733l-1.967-.894V8.285l7.386-1.129h.503v12.156c0 1.97.99 2.32 2.48 2.32 1.093 0 1.53-.191 2.12-.41v-10.49l-1.989-.895v-1.57l7.365-1.145h.48V21.9l1.967 1v1.5l-7.168.766h-.515l-.007-2.3h-.197c-1.132 1.363-3 2.364-5.397 2.364-3.562 0-5.085-2.47-5.085-5.472V10.73l.024.002zM146.292 0c1.748 0 3.158 1.378 3.158 3.079 0 1.699-1.414 3.079-3.16 3.079-1.749 0-3.169-1.363-3.169-3.066 0-1.704 1.42-3.066 3.169-3.066l.002-.026zm42.941 23.924l3.767.008-3.767-.008z"/>
</svg>
