<svg width="16" height="14" viewBox="0 0 16 14" fill="none" xmlns="http://www.w3.org/2000/svg">
<path fill-rule="evenodd" clip-rule="evenodd" d="M5.02601 13.01C11.0636 13.01 14.3673 8.0032 14.3673 3.66867C14.3673 3.52781 14.3673 3.38695 14.3609 3.2461C15.0012 2.78511 15.5582 2.20248 16 1.54302C15.411 1.80552 14.7771 1.97839 14.1112 2.06162C14.7899 1.65826 15.3085 1.0116 15.5582 0.243297C14.9244 0.621048 14.2201 0.889956 13.471 1.03721C12.8691 0.396959 12.0176 0 11.0764 0C9.26451 0 7.79192 1.47259 7.79192 3.28451C7.79192 3.54062 7.82393 3.79032 7.87515 4.03361C5.14766 3.89916 2.72749 2.58663 1.10764 0.601841C0.82593 1.08844 0.665866 1.65186 0.665866 2.2537C0.665866 3.39336 1.2485 4.39856 2.12565 4.9876C1.58784 4.96839 1.08203 4.82113 0.640256 4.57783C0.640256 4.59064 0.640256 4.60344 0.640256 4.62265C0.640256 6.21048 1.77351 7.54222 3.27171 7.84314C2.9964 7.91997 2.70828 7.95838 2.40736 7.95838C2.19608 7.95838 1.9912 7.93918 1.79272 7.90076C2.20888 9.20688 3.42537 10.1545 4.85954 10.1801C3.73269 11.0636 2.31773 11.5886 0.781112 11.5886C0.518607 11.5886 0.256102 11.5758 0 11.5438C1.44698 12.4658 3.17567 13.01 5.02601 13.01Z" fill="white"/>
</svg>
