<svg xmlns="http://www.w3.org/2000/svg" width="244" height="36" fill="none" viewBox="0 0 244 36">
    <path fill="#B9B9B9" d="M13.546 11.083v12.734c1.782-.929 3.03-2.547 3.636-4.37l.142.068c-.392 4.543-3.6 9.086-8.59 9.086C3.707 28.601 0 24.988 0 19.205c0-4.336 2.923-7.055 6.666-9.5A6.756 6.756 0 0 0 4.99 9.5C2.424 9.5.927 11.186.927 12.907H.713c-.036-.241-.036-.482-.036-.723 0-3.063 1.675-6.78 5.74-6.78 2.602 0 4.598 2.306 7.628 2.306 1.212 0 2.709-.551 3.315-1.825h.107c-.036 2.238-.748 4.544-3.921 5.198zm1.925 13.044c-1.783 1.824-3.707 3.373-6.203 3.373-4.634 0-8.198-3.51-8.198-8.605 0-2.994 1.283-4.611 2.709-6.504h-.143c-.891.86-3.244 3.028-3.244 6.71 0 5.646 3.672 9.122 8.484 9.122 3.351 0 5.632-2.237 6.666-4.061l-.071-.035zm1.425-16.692c-.606 1.101-1.889 2.512-4.49 2.512-2.603 0-4.991-1.721-7.095-1.721-1.925 0-3.243 1.24-3.743 2.168l.036.07c.677-.654 1.71-1.309 3.386-1.309 2.78 0 4.563 1.653 7.38 1.653 2.994 0 4.348-1.894 4.598-3.338l-.072-.035zM6.986 9.81c-1.817 1.824-3.493 3.82-3.493 7.71 0 2.133.748 4.335 2.424 5.712l1.034-.517v-9.223l-.963.482-.178-.345 4.99-2.616c-1.354-.274-2.566-.86-3.814-1.203zm6.168 1.342c-.25.034-.5.034-.785.034a6.43 6.43 0 0 1-1.426-.138v10.05l-4.67 2.444c.963.688 2.14 1.101 3.636 1.101a8.11 8.11 0 0 0 3.244-.654V11.152zM8.02 12.907l-.677.379v9.224l.677-.345v-9.258zm20.497 1.308v11.908c0 3.304-3.03 5.542-6.416 6.195l-.071-.137a4.544 4.544 0 0 0 2.638-4.13V15.728l-1.925-1.686-.748.791v9.603l1.069.93v.068l-2.887 3.029-3.315-2.925V25.4l1.283-1.308V8.88l3.779-3.888.07.034v9.223l3.102-3.235 3.244 2.823.606-.62.285.242-.714.756zm-9.98 11.254v-.068l.748-.724V8.295l-.748.758v15.28l-1.142 1.102v.069l2.78 2.409.5-.55-2.139-1.894zm7.271-10.29l-2.317-1.928-.499.516 2.068 1.79v12.39c0 .827-.178 1.687-.499 2.169l.036.034c.891-.62 1.212-1.549 1.212-2.753V15.178zm8.377 5.954v1.755l3.458 2.615 1.996-2.064.286.275-4.634 4.783-4.706-3.648-.712.723-.286-.275.82-.826v-8.707l6.738-4.75 3.529 5.507-6.489 4.612zm-2.638 3.029v-8.743l-.748.517v8.57l4.42 3.476.57-.585-4.242-3.235zm2.71-10.601l-.072.034v7.056l3.173-2.237-3.101-4.853zm.927-.688l-.642.447 3.137 4.853.642-.448-3.137-4.852zm28.726 15.59l-4.956-4.13-3.778 4.13-5.133-4.268V17.45h-.998c-.892 0-1.355.55-1.57 1.204h-.106a5.29 5.29 0 0 1-.178-1.307c0-.895.25-3.235 2.852-3.235v-5.92c0-1.136-1.39-1.583-1.39-3.098 0-1.961 1.924-3.889 5.454-5.094l.142.103c-1.283.723-1.96 1.412-1.96 2.892 0 2.271 2.281 1.686 2.281 5.265v1.377l4.171-4.233 4.385 4.164 4.135-4.164 3.992 3.786v12.734l-7.343 6.54zm-12.726-4.818v-7.261h-1.997c-1.034 0-1.497.653-1.568 1.238l.035.035c.356-.378.713-.585 1.533-.585h1.247v6.952l4.706 3.924.534-.62-4.49-3.683zm0-15.798c0-1.41-1.283-1.893-1.283-2.787 0-1.24.498-2.271 1.283-3.235l-.072-.034c-1.069.792-2.067 2.065-2.067 3.303 0 1.24 1.39 1.825 1.39 2.926v6.092h.749V7.847zm7.521 3.442l-2.709-2.546-1.426 1.41v12.184l3.244 2.65.891-.964V11.29zm1.14 12.287V10.808l-3.03-2.891-.57.55 2.852 2.65v12.838l4.813 4.027.57-.517-4.634-3.889zm6.916-12.734l-2.245-2.065-1.283 1.273v12.253l3.493 2.96.035-.035V10.842zm1.14-.482L65.3 7.917l-.535.55 2.388 2.203v14.386l.749-.688V10.36zM83.05 28.463l-3.387-2.96-3.03 2.96-3.707-3.166-.5.516-.284-.275.641-.654V15.66l6.702-4.681 3.85 2.891.677-.689.286.276-.784.791v9.534l1.889 1.686.606-.62.285.242-3.244 3.372zm-9.126-3.82V15.35l-.749.517v9.12l3.423 2.96.57-.55-3.244-2.754zm5.74-9.051l-2.924-2.203-.107.07v10.014l2.424 2.03.606-.584v-9.327zm1.14 9.361v-9.878l-3.03-2.375-.713.482 2.995 2.272v9.843l2.994 2.616.535-.551-2.781-2.409zm12.619-7.71h3.671v7.366l-5.668 3.854c-.748-.826-1.818-1.41-3.136-1.41-1.07 0-1.926.344-3.066 1.273l-.178-.07 4.848-6.814H86.9v-6.401l5.953-3.993c.713.551 1.247.86 2.174.86.714 0 1.747-.137 2.532-.756l.142.068-4.278 6.024zm-3.992 8.811c-1.034 0-1.854.345-2.567.826v.07c.57-.242 1.14-.31 1.675-.31.82 0 2.104.378 2.96 1.342l.82-.585c-.679-.757-1.498-1.343-2.888-1.343zm3.813-5.782h-1.996l-4.17 5.817.035.069c1.033-.723 2.032-1.204 3.244-1.204 1.069 0 2.174.481 2.852 1.307l.035-.034v-5.955zm-5.204 0v-5.54l-.749.516v5.782h2.888l.57-.757H88.04zm7.45-6.746c-.748.517-1.176.792-2.424.792-.713 0-1.568-.31-2.245-.998l-.071.034v5.025h1.354l3.422-4.819-.036-.034zm-1.71-.31c-.642 0-1.462-.309-1.997-.997l-.891.585c.677.791 1.319 1.135 2.316 1.135.642 0 1.57-.172 2.532-.964l.035-.103c-.605.242-1.354.345-1.996.345zm.605 5.92h-2.317l-.534.724h2.103v6.676l.748-.516v-6.883zm15.008-4.921v11.908c0 3.304-3.03 5.542-6.417 6.195l-.071-.137a4.543 4.543 0 0 0 2.638-4.13V15.728l-1.925-1.686-.748.791v9.603l1.069.93v.068l-2.887 3.029-3.315-2.925V25.4l1.283-1.308V8.88l3.779-3.888.071.034v9.223l3.101-3.235 3.244 2.823.606-.62.285.242-.713.756zm-9.981 11.254v-.068l.748-.724V8.295l-.748.757v15.281l-1.141 1.102v.068l2.78 2.41.499-.551-2.138-1.893zm7.271-10.29l-2.317-1.928-.499.516 2.068 1.79v12.39c0 .827-.178 1.687-.499 2.169l.036.034c.891-.62 1.212-1.549 1.212-2.753V15.178h-.001zm9.198 13.284l-3.066-2.719-.713.723-.286-.275.82-.86v-9.947l-1.497-1.377-.57.62-.286-.275 3.208-3.373 2.852 2.478.713-.757.321.24-.891.93v10.05l1.711 1.549.785-.792.285.276-3.386 3.51zm-2.104-3.372V14.834l-1.853-1.652-.499.551 1.604 1.48v10.222l2.852 2.478.534-.55-2.638-2.272zm1.07-14.386l-2.923-2.581 2.673-2.754 2.923 2.581-2.673 2.754zm-1.818-3.133l-.535.516 2.317 2.1.534-.585-2.316-2.03zm17.925 20.891l-3.102-2.719v-10.05l-1.889-1.651-.999 1.032v9.293l1.106.998v.137l-2.923 2.96-3.316-2.925v-.103l1.284-1.308v-8.673l-1.676-1.48-.677.723-.285-.276 3.244-3.407 3.243 2.788v.688l3.387-3.476 3.172 2.753.713-.722.321.275-.855.86v9.843l1.604 1.446.784-.826.285.275-3.421 3.545zm-9.411-2.994v-.068c0 .068.713-.689.713-.689v-9.775l-2.032-1.79-.5.517 1.783 1.583v9.086l-1.105 1.101v.069l2.745 2.409.57-.585-2.174-1.858zm7.45-.275V15.11l-2.21-1.928-.571.585 2.032 1.755v10.016l2.673 2.41.571-.586-2.495-2.168zm12.013 9.464c-1.176-1.239-1.996-1.755-3.101-1.755-1.177 0-2.531.448-3.922 1.17l-.106-.102 4.919-5.507-3.494-2.684-.677.688-.285-.24.784-.827v-9.74l6.773-4.681 3.778 2.891.642-.689.285.276-.748.791v11.772c0 1.79 1.033 1.72 1.033 3.062 0 1.549-2.317 2.994-5.881 5.575zm-4.741-9.533v-9.74l-.749.517v9.533l3.529 2.754.535-.62-3.315-2.444zm2.495 6.884c-1.176 0-2.246.344-3.244.998v.069c.642-.241 1.355-.551 2.567-.551 1.105 0 2.031.585 2.958 1.618l.714-.551c-.892-.998-1.961-1.583-2.995-1.583zm4.349-3.305c-.891-.55-1.105-1.135-1.105-2.615v-.62l-5.918 6.608.036.034c1.141-.654 2.175-1.135 3.85-1.135 1.426 0 2.388.55 3.494 1.445.677-.55 1.14-1.101 1.14-1.962 0-.688-.606-1.204-1.497-1.755zm-1.105-13.112l-2.959-2.237-.072.069v10.565l2.282 1.721.749-.826v-9.292zm2.174 12.63c-.927-.688-1.034-1.273-1.034-2.753V15.007l-2.994-2.34-.677.447 2.923 2.236v10.6c0 1.48.071 1.894 1.034 2.513.855.551 1.532 1.136 1.532 1.928 0 .206-.035.55-.035.55l.035.035c.179-.173.393-.448.393-.895 0-.757-.392-1.273-1.177-1.858zm8.556.241l-3.28-2.478-.677.723-.285-.275.784-.826V13.56h-2.068l-.071-.069 1.247-1.79h.891V9.397l3.779-3.89.071.07v6.126h2.852l.072.069-1.248 1.79h-1.676V23.99l1.961 1.446.749-.792.285.275-3.386 3.544zm-2.317-19.652l-.749.792v2.1h.749V8.81zm0 16.452V13.56h-.749v12.115l3.03 2.272.535-.551-2.816-2.134zm17.359-10.704v9.637l-6.024 4.302-4.528-3.304-.534.585-.285-.276.641-.688v-9.43l6.31-4.371 4.206 3.167.677-.689.286.275-.749.792zm-9.588 9.912v-9.396l-.749.517v9.258l4.278 3.166.677-.481-4.206-3.064zm5.739-8.776l-2.995-2.272-.035.035v10.256l3.03 2.202V15.695zm1.141-.62l-3.316-2.478-.676.482 3.243 2.409v10.704l.749-.55V15.075zm16.326 13.388l-3.102-2.719v-10.05l-1.889-1.651-.998 1.032v9.293l1.105.998v.137l-2.923 2.96-3.315-2.925v-.103l1.283-1.308v-8.673l-1.675-1.48-.678.723-.285-.276 3.244-3.407 3.244 2.788v.688l3.386-3.476 3.173 2.753.713-.722.32.275-.855.86v9.843l1.604 1.446.784-.826.285.275-3.421 3.545zm-9.412-2.994v-.068c0 .068.714-.689.714-.689v-9.775l-2.032-1.79-.499.517 1.783 1.583v9.086l-1.105 1.101v.069l2.744 2.409.571-.585-2.176-1.858zm7.451-.275V15.11l-2.21-1.928-.57.585 2.031 1.755v10.016l2.674 2.41.57-.586-2.495-2.168zm23.982 3.27c-.998-1.033-1.354-1.377-2.531-1.687v6.746l-.071.034-1.426-1.24L195.251 36l-.072-.034v-9.258c-1.247.275-2.566.895-3.85 2.134l-.071-.034c.25-2.65 1.604-4.612 3.921-5.37v-6.71h-.749c-1.033 0-1.604.515-2.103 1.445h-.107c-.107-.31-.178-.792-.178-1.583 0-1.446 1.105-2.96 2.923-2.96h.214V9.913l-1.462-1.274-.713.689-.249-.241 3.6-3.683 3.351 2.96v3.132l.784-.826V6.712h.392v3.614l4.741-4.922 4.028 3.545v14.972l-6.237 4.542zm-8.234-3.03c-1.461.276-2.494 1.136-3.172 2.272l.035.07c.999-.827 1.925-1.205 3.137-1.48v-.861zm1.141-9.877h-1.96c-1.355 0-1.89.827-1.925 1.79l.035.034c.428-.688.856-.929 1.711-1.032h1.391v18.757l.748-.688v-18.86zm0-6.195l-1.782-1.583-.571.585 1.605 1.376v3.89h.748V9.361zm4.171 1.962l-.784.791v19.928l.784.689V11.324zm4.67-.792l-2.104-1.858-2.174 2.272V23.06c1.854.173 3.137.689 4.242 1.859l.036-.035V10.532zm-4.278 14.903v.895c1.212.275 1.711.62 2.566 1.583l.82-.62c-.856-1.032-1.711-1.651-3.386-1.858zm5.418-15.453l-2.424-2.169-.57.585 2.246 1.996V26.4l.748-.551V9.982zm15.792 4.577v9.637l-6.025 4.302-4.527-3.304-.535.585-.285-.276.641-.688v-9.43l6.31-4.371 4.206 3.167.677-.689.286.275-.748.792zm-9.589 9.912v-9.396l-.749.517v9.258l4.277 3.166.678-.481-4.206-3.064zm5.739-8.776l-2.994-2.272-.036.035v10.256l3.03 2.202V15.695zm1.141-.62l-3.316-2.478-.677.482 3.244 2.409v10.704l.749-.55V15.075zm10.978 2.169h3.672v7.365l-5.668 3.854c-.748-.826-1.818-1.41-3.136-1.41-1.07 0-1.925.344-3.066 1.273l-.178-.07 4.847-6.814h-2.994v-6.401l5.953-3.993c.713.551 1.248.86 2.175.86.713 0 1.746-.137 2.531-.756l.142.068-4.278 6.024zm-3.992 8.81c-1.034 0-1.854.345-2.566.826v.07c.57-.242 1.14-.31 1.675-.31.82 0 2.103.378 2.958 1.342l.821-.585c-.677-.757-1.497-1.343-2.888-1.343zm3.815-5.782h-1.997l-4.17 5.817.035.069c1.034-.723 2.032-1.204 3.244-1.204 1.069 0 2.174.481 2.852 1.307l.035-.034v-5.955h.001zm-5.205 0v-5.54l-.749.516v5.782h2.887l.571-.757h-2.709zm7.45-6.746c-.749.517-1.176.792-2.424.792-.714 0-1.569-.31-2.246-.998l-.072.034v5.025h1.355l3.422-4.819-.035-.034zm-1.711-.31c-.642 0-1.461-.309-1.996-.997l-.891.585c.677.791 1.319 1.135 2.317 1.135.641 0 1.569-.172 2.531-.964l.035-.103c-.606.242-1.354.345-1.996.345zm.606 5.92h-2.317l-.534.724h2.103v6.676l.748-.516v-6.883zm8.627 9.327l-3.28-2.478-.677.723-.285-.275.784-.826V13.56h-2.068l-.071-.069 1.247-1.79h.891V9.397l3.779-3.89.072.07v6.126h2.851l.072.069-1.248 1.79h-1.675V23.99l1.96 1.446.749-.792.285.275-3.386 3.544zm-2.317-19.652l-.749.792v2.1h.749V8.81zm0 16.452V13.56h-.749v12.115l3.03 2.272.535-.551-2.816-2.134z"/>
</svg>
