<svg xmlns="http://www.w3.org/2000/svg" width="79" height="55" fill="none" viewBox="0 0 79 55">
    <path fill="#fff" d="M0 0h54.654v55H0z"/>
    <ellipse cx="22.855" cy="23" fill="#FFBD27" rx="22.855" ry="23"/>
    <rect width="66.082" height="21" x="12.918" y="12" fill="#121212" rx="4.671"/>
    <path fill="#FFBD27" d="M24.117 21.587v-3.753H22.5v3.753l-3.234-1.329-.55 1.595 3.235 1.262-1.983 3.022 1.372 1.03 1.984-3.189 2.105 3.189 1.25-1.03-2.013-3.022 3.325-1.262-.61-1.595-3.264 1.329zM39.187 21.587v-3.753H37.57v3.753l-3.234-1.329-.549 1.595 3.234 1.262-1.983 3.022 1.373 1.03 1.983-3.189 2.105 3.189 1.25-1.03-2.013-3.022 3.326-1.262-.61-1.595-3.265 1.329z"/>
    <path fill="#F6F6F6" d="M54.255 21.587v-3.753h-1.617v3.753l-3.233-1.329-.55 1.595 3.234 1.262-1.983 3.022 1.373 1.03 1.983-3.189 2.105 3.189 1.251-1.03-2.013-3.022 3.325-1.262-.61-1.595-3.265 1.329zM69.33 21.587v-3.753h-1.617v3.753l-3.234-1.329-.55 1.595 3.235 1.262-1.984 3.022 1.373 1.03 1.984-3.189 2.105 3.189 1.25-1.03-2.013-3.022 3.325-1.262-.61-1.595-3.264 1.329z"/>
</svg>
