<svg xmlns="http://www.w3.org/2000/svg" width="48" height="50" fill="none" viewBox="0 0 48 50">
    <ellipse cx="23.16" cy="27" fill="#FFBD27" rx="23.16" ry="23"/>
    <path fill="#121212" d="M42.703 33.996c-.68-3.536-3.71-6.19-7.35-6.19-2.89 0-5.4 1.68-6.65 4.14-3.01.328-5.35 3.307-5.35 6.474 0 3.393 2.69 6.515 6 6.515h13c2.76 0 5-2.66 5-5.49 0-2.706-2.05-5.264-4.65-5.449z"/>
    <path fill="#fff" d="M34.044 38.194l-1.832-.006c-.58-.001-.78.387-.447.868l2.748 3.358c.264.382.696.383.962-.002l2.718-3.332c.332-.481.133-.874-.447-.876l-1.742-.005v-3.288a.4.4 0 0 0-.396-.403H34.44a.4.4 0 0 0-.397.403v3.283z"/>
    <path fill="#202021" d="M26.15 8.255C25.244 3.54 21.204 0 16.35 0c-3.852 0-7.199 2.241-8.865 5.522C3.47 5.959.352 9.93.352 14.153c0 4.524 3.586 8.687 8 8.687h17.332c3.68 0 6.666-3.547 6.666-7.32 0-3.608-2.733-7.019-6.2-7.265z"/>
    <path fill="#fff" d="M14.608 12.96l-2.444.008c-.774.002-1.039-.516-.595-1.157l3.663-4.478c.353-.509.93-.51 1.284.004l3.624 4.442c.442.642.176 1.166-.596 1.168l-2.323.007v4.384a.534.534 0 0 1-.529.537h-1.555a.533.533 0 0 1-.53-.537V12.96z"/>
</svg>
