<svg width="28" height="28" viewBox="0 0 28 28" fill="none" xmlns="http://www.w3.org/2000/svg">
<path d="M4.6974 4.64246C7.3224 2.01746 10.5099 0.704956 14.2599 0.704956C18.0099 0.704956 21.1974 2.01746 23.8224 4.64246C26.4474 7.26746 27.7599 10.455 27.7599 14.205C27.7599 17.1581 26.8927 19.8065 25.1583 22.1503C23.4708 24.494 21.2677 26.1112 18.549 27.0018C17.9396 27.1425 17.6349 26.9315 17.6349 26.369C17.6349 26.3221 17.6349 25.8768 17.6349 25.0331C17.6349 24.1893 17.6349 23.3925 17.6349 22.6425C17.6349 21.5175 17.3302 20.6971 16.7208 20.1815C18.549 19.9471 20.0255 19.3612 21.1505 18.4237C22.2755 17.4862 22.838 15.8456 22.838 13.5018C22.838 12.0956 22.3927 10.8768 21.5021 9.84558C21.924 8.81433 21.8771 7.64246 21.3615 6.32996C20.6115 6.09558 19.3693 6.54089 17.6349 7.66589C16.5568 7.38464 15.4318 7.24402 14.2599 7.24402C13.088 7.24402 11.963 7.38464 10.8849 7.66589C10.1349 7.15027 9.43177 6.77527 8.77552 6.54089C8.16615 6.30652 7.74427 6.21277 7.5099 6.25964L7.15834 6.32996C6.64271 7.64246 6.59584 8.81433 7.01771 9.84558C6.12709 10.8768 5.68177 12.0956 5.68177 13.5018C5.68177 15.8456 6.24427 17.4862 7.36927 18.4237C8.49427 19.3612 9.97084 19.9471 11.799 20.1815C11.3302 20.5565 11.049 21.1659 10.9552 22.0096C9.22084 22.7596 7.90834 22.3846 7.01771 20.8846C6.54896 19.994 5.84584 19.5253 4.90834 19.4784C4.81459 19.4784 4.72084 19.5018 4.62709 19.5487C4.53334 19.5487 4.41615 19.619 4.27552 19.7596C4.18177 19.8534 4.36927 20.0175 4.83802 20.2518C5.4474 20.5331 5.93959 21.2128 6.31459 22.2909C6.36146 22.3378 6.40834 22.4315 6.45521 22.5721C6.50209 22.6659 6.64271 22.8534 6.87709 23.1346C7.11146 23.4159 7.36927 23.6268 7.65052 23.7675C7.97865 23.9081 8.42396 24.0487 8.98646 24.1893C9.54896 24.33 10.1818 24.2831 10.8849 24.0487C10.8849 24.3768 10.8849 24.7284 10.8849 25.1034C10.8849 25.4315 10.8849 25.7128 10.8849 25.9471C10.8849 26.1346 10.8849 26.2753 10.8849 26.369C10.8849 26.9315 10.5802 27.1425 9.97084 27.0018C7.25209 26.1112 5.02552 24.494 3.29115 22.1503C1.60365 19.8065 0.759899 17.1581 0.759899 14.205C0.759899 10.455 2.0724 7.26746 4.6974 4.64246Z" fill="#121212"/>
</svg>
