<svg xmlns="http://www.w3.org/2000/svg" width="144" height="29" fill="none" viewBox="0 0 144 29">
    <path fill="#B9B9B9" d="M0 0h28.817v28.483H0V0zm2.122 4.471c1.286 5.79 2.439 11.612 3.677 17.412.227.695.087 1.612.783 2.078 1.257.194 2.546.145 3.814.062.69.02.854-.764.98-1.268.866-4.13 1.806-8.246 2.668-12.376.068-.382.19-.753.377-1.097 1.074 4.432 1.96 8.902 2.96 13.348.136.473.164 1.056.646 1.344 1.371.16 2.779.174 4.147-.01.492-.281.517-.861.643-1.34 1.267-6.048 2.449-12.12 3.788-18.153-1.21.007-2.416.004-3.623.004-.962 5.262-1.734 10.559-2.797 15.804-1.196-4.45-1.997-9.007-3.038-13.498-.237-.768-.13-1.886-.998-2.275a26.515 26.515 0 0 0-3.196 0c-.604.048-.74.74-.859 1.198-.962 4.453-1.971 8.896-2.912 13.348-.097.414-.24.81-.402 1.202a635.497 635.497 0 0 1-2.715-15.78c-1.314-.003-2.628.004-3.943-.003z"/>
    <path fill="#F6F6F6" d="M28.821 0H57.37v28.482H28.821V0zm7.311 4.283c-.014 1.167-.014 2.33 0 3.497 1.641.01 3.282.004 4.924.004-.008 4.304-.008 8.61 0 12.914-1.642 0-3.283-.007-4.924.004a125.87 125.87 0 0 0 .004 3.497c4.64.01 9.279.01 13.918 0 .018-1.163.015-2.33.008-3.494-1.645-.014-3.286-.007-4.927-.007.007-4.303.007-8.61 0-12.914 1.64 0 3.282.007 4.923-.004a125.86 125.86 0 0 0-.004-3.497c-4.64-.01-9.279-.01-13.922 0z"/>
    <path fill="#B9B9B9" d="M57.364 0H86.18v28.482H57.364V0zm6.51 4.474v19.534h3.993v-7.641c2.166.007 4.33-.01 6.496.003.79-.073 1.731.473 1.713 1.313.1 2.112.287 4.217.424 6.325 1.267 0 2.531 0 3.8.004-.36-2.39.082-4.86-.615-7.2-.359-1.227-1.76-1.501-2.851-1.807.811-.417 1.853-.455 2.442-1.219.854-1.049.915-2.449.919-3.727-.014-1.494.022-3.136-.959-4.39-.783-1.042-2.248-1.195-3.476-1.195-3.96-.004-7.925 0-11.886 0z"/>
    <path fill="#F6F6F6" d="M86.18 0h28.639v28.482H86.181V0zm5.15 4.286c-.014 1.16-.014 2.324-.007 3.484.916.017 1.832.017 2.747.01.018 4.308.018 8.615 0 12.922-.915-.007-1.828-.007-2.743.003a142.03 142.03 0 0 0 .003 3.49c5.775.018 11.545.018 17.319 0 .029-2.302.011-4.605.011-6.908-1.253-.01-2.506-.01-3.759.004a483.796 483.796 0 0 0 0 3.407c-2.284.004-4.568-.014-6.852.01-.036-1.705-.01-3.414-.018-5.12h5.386v-3.323h-5.386c0-1.494-.004-2.987.004-4.481 2.226.003 4.449.003 6.675 0-.007.993-.007 1.987-.003 2.984h3.695c-.004-2.16.003-4.321-.004-6.482-5.692-.017-11.38-.017-17.068 0z"/>
    <path fill="#B9B9B9" d="M114.824 0H144v28.482h-29.176V0zm6.51 4.474v19.534c3.357-.007 6.711.014 10.069-.01 2.068-.038 4.478-.41 5.724-2.202 1.454-2.251 1.235-5.005 1.49-7.544-.258-2.543-.029-5.308-1.49-7.566-1.16-1.677-3.379-2.118-5.329-2.188-3.487-.055-6.977-.01-10.464-.024zM36.13 4.282c4.644-.01 9.283-.01 13.923 0 .018 1.164.018 2.331.004 3.498-1.642.01-3.283.004-4.924.004.008 4.303.008 8.61 0 12.914 1.641 0 3.282-.007 4.927.007.007 1.163.01 2.33-.007 3.494-4.64.01-9.28.01-13.919 0-.017-1.167-.017-2.33-.003-3.498 1.64-.01 3.282-.003 4.923-.003-.007-4.304-.007-8.61 0-12.914-1.641 0-3.282.006-4.923-.004-.014-1.167-.014-2.33 0-3.498zM91.335 4.286c5.688-.018 11.376-.018 17.067 0 .008 2.16 0 4.32.004 6.481h-3.695a247.2 247.2 0 0 1 .004-2.984c-2.227.004-4.45.004-6.676 0-.007 1.494-.004 2.987-.004 4.481h5.387v3.324h-5.387c.008 1.706-.017 3.415.018 5.12 2.284-.024 4.568-.007 6.852-.01a483.767 483.767 0 0 1 0-3.408c1.253-.014 2.506-.014 3.76-.003 0 2.303.018 4.605-.011 6.908-5.774.018-11.545.018-17.32 0a142.03 142.03 0 0 1-.003-3.49c.916-.011 1.828-.011 2.744-.004.018-4.307.018-8.614 0-12.921-.916.007-1.832.007-2.748-.01-.007-1.16-.007-2.324.008-3.484z"/>
    <path fill="#F6F6F6" d="M2.124 4.47c1.315.007 2.629 0 3.943.004a635.571 635.571 0 0 0 2.715 15.78c.162-.393.305-.79.402-1.202.941-4.453 1.95-8.896 2.912-13.349.119-.458.255-1.15.859-1.198a26.513 26.513 0 0 1 3.196 0c.869.389.76 1.507.998 2.275 1.041 4.491 1.842 9.048 3.038 13.498 1.063-5.245 1.835-10.542 2.797-15.804 1.207 0 2.413.003 3.623-.004-1.339 6.034-2.52 12.105-3.788 18.152-.126.48-.15 1.06-.643 1.341-1.368.184-2.776.17-4.147.01-.482-.288-.51-.871-.647-1.344-.998-4.446-1.885-8.916-2.959-13.348a3.627 3.627 0 0 0-.377 1.097c-.861 4.13-1.802 8.246-2.668 12.376-.125.504-.29 1.289-.98 1.268-1.268.083-2.557.132-3.814-.062-.696-.466-.556-1.383-.782-2.078-1.24-5.8-2.392-11.622-3.678-17.412zM63.878 4.473c3.96 0 7.925-.003 11.886 0 1.228 0 2.693.153 3.476 1.195.98 1.254.945 2.897.959 4.39-.004 1.279-.065 2.679-.92 3.728-.588.764-1.63.802-2.441 1.219 1.091.305 2.492.58 2.851 1.806.697 2.341.255 4.81.614 7.2-1.268-.003-2.532-.003-3.8-.003-.136-2.108-.322-4.213-.423-6.325.018-.84-.923-1.386-1.713-1.313-2.165-.014-4.33.003-6.496-.004v7.642h-3.993V4.473zm3.993 3.21v5.658c2.388-.031 4.783.07 7.168-.049 1.282-.072 1.3-1.563 1.35-2.493-.04-1.025.158-2.387-.83-3.064-2.556-.129-5.124-.014-7.688-.052zM121.332 4.473c3.487.014 6.977-.031 10.464.024 1.95.07 4.169.511 5.329 2.189 1.461 2.257 1.232 5.022 1.49 7.565-.255 2.539-.036 5.293-1.49 7.544-1.246 1.792-3.656 2.164-5.724 2.202-3.358.025-6.711.004-10.069.01V4.474zm3.993 3.21v13.115c2.043-.003 4.087.004 6.133.004.981.017 2.169-.233 2.629-1.178.686-1.462.517-3.108.575-4.668-.076-1.952.211-3.987-.467-5.863-.305-.959-1.408-1.414-2.374-1.403-2.165-.021-4.331.003-6.496-.007z"/>
    <path fill="#B9B9B9" d="M67.868 7.682c2.564.038 5.131-.076 7.688.052.988.678.79 2.04.83 3.064-.05.93-.069 2.42-1.35 2.494-2.385.118-4.78.017-7.168.048V7.682zM125.326 7.683c2.165.01 4.33-.014 6.496.007.966-.01 2.068.444 2.373 1.403.679 1.876.392 3.911.467 5.863-.057 1.56.111 3.206-.574 4.668-.46.945-1.649 1.195-2.629 1.178-2.047 0-4.09-.007-6.133-.003V7.683z"/>
</svg>
