<svg width="676" height="183" viewBox="0 0 676 183" fill="none" xmlns="http://www.w3.org/2000/svg">
<path d="M318.097 182.984C311.185 182.984 304.561 182.504 298.225 181.544C291.985 180.584 287.137 179.48 283.681 178.232V154.616C293.857 156.44 302.977 157.352 311.041 157.352C316.513 157.352 320.449 156.488 322.849 154.76C325.345 153.128 326.593 150.008 326.593 145.4V139.208C324.193 142.28 321.073 145.016 317.233 147.416C313.489 149.816 309.169 151.016 304.273 151.016C294.481 151.016 287.089 147.368 282.097 140.072C277.201 132.776 274.753 122.408 274.753 108.968C274.753 95.528 277.201 85.16 282.097 77.864C287.089 70.568 294.481 66.92 304.273 66.92C309.169 66.92 313.489 68.12 317.233 70.52C321.073 72.92 324.193 75.656 326.593 78.728V68.936H366.049V92.552H359.713V143.24C359.713 157.16 356.257 167.24 349.344 173.48C342.433 179.816 332.017 182.984 318.097 182.984ZM318.241 125.384C321.025 125.384 323.089 124.664 324.433 123.224C325.873 121.688 326.593 119.336 326.593 116.168V101.768C326.593 98.6 325.873 96.296 324.433 94.856C323.089 93.32 321.025 92.552 318.241 92.552C315.457 92.552 313.345 93.32 311.905 94.856C310.561 96.296 309.889 98.6 309.889 101.768V116.168C309.889 119.336 310.561 121.688 311.905 123.224C313.345 124.664 315.457 125.384 318.241 125.384ZM373.291 149V125.384H395.755V149H373.291Z" fill="black"/>
</svg>
