<svg width="676" height="149" viewBox="0 0 676 149" fill="none" xmlns="http://www.w3.org/2000/svg">
<path d="M138.122 121.656C133.514 121.656 129.098 121.336 124.874 120.696C120.714 120.056 117.482 119.32 115.178 118.488V102.744C121.962 103.96 128.042 104.568 133.418 104.568C137.066 104.568 139.69 103.992 141.29 102.84C142.954 101.752 143.786 99.672 143.786 96.6V92.472C142.186 94.52 140.106 96.344 137.546 97.944C135.05 99.544 132.17 100.344 128.906 100.344C122.378 100.344 117.45 97.912 114.122 93.048C110.858 88.184 109.226 81.272 109.226 72.312C109.226 63.352 110.858 56.44 114.122 51.576C117.45 46.712 122.378 44.28 128.906 44.28C132.17 44.28 135.05 45.08 137.546 46.68C140.106 48.28 142.186 50.104 143.786 52.152V45.624H170.09V61.368H165.866V95.16C165.866 104.44 163.562 111.16 158.954 115.32C154.346 119.544 147.402 121.656 138.122 121.656ZM138.218 83.256C140.074 83.256 141.45 82.776 142.346 81.816C143.306 80.792 143.786 79.224 143.786 77.112V67.512C143.786 65.4 143.306 63.864 142.346 62.904C141.45 61.88 140.074 61.368 138.218 61.368C136.362 61.368 134.954 61.88 133.994 62.904C133.098 63.864 132.65 65.4 132.65 67.512V77.112C132.65 79.224 133.098 80.792 133.994 81.816C134.954 82.776 136.362 83.256 138.218 83.256ZM213.798 44.28C215.078 44.28 216.294 44.408 217.446 44.664C218.598 44.92 219.558 45.24 220.326 45.624V63.96C217.702 62.872 214.886 62.328 211.878 62.328C207.846 62.328 204.742 63.384 202.566 65.496C200.39 67.608 199.302 70.744 199.302 74.904V83.256H207.942V99H172.998V83.256H177.222V61.368H172.998V45.624H199.302V52.632C201.094 49.944 203.142 47.896 205.446 46.488C207.75 45.016 210.534 44.28 213.798 44.28ZM279.399 83.256V99H254.055V92.472C252.647 94.52 250.663 96.344 248.103 97.944C245.607 99.544 242.535 100.344 238.887 100.344C234.087 100.344 230.311 99.064 227.559 96.504C224.807 93.944 223.431 90.328 223.431 85.656C223.431 73.56 233.703 67.352 254.247 67.032C254.055 64.856 253.223 63.384 251.751 62.616C250.279 61.784 247.783 61.368 244.263 61.368C241.383 61.368 238.279 61.688 234.951 62.328C231.687 62.904 228.679 63.704 225.927 64.728V47.064C229.319 46.232 232.999 45.56 236.967 45.048C240.935 44.536 244.807 44.28 248.583 44.28C258.119 44.28 264.935 46.008 269.031 49.464C273.127 52.92 275.175 58.264 275.175 65.496V83.256H279.399ZM254.055 76.536C251.175 76.536 248.935 76.92 247.335 77.688C245.799 78.456 245.031 79.736 245.031 81.528C245.031 82.616 245.351 83.512 245.991 84.216C246.695 84.856 247.655 85.176 248.871 85.176C250.535 85.176 251.815 84.472 252.711 83.064C253.607 81.656 254.055 79.672 254.055 77.112V76.536ZM282.11 104.568H286.334V61.368H282.11V45.624H308.414V52.152C310.014 50.104 312.062 48.28 314.558 46.68C317.118 45.08 320.03 44.28 323.294 44.28C329.822 44.28 334.718 46.712 337.982 51.576C341.31 56.44 342.974 63.352 342.974 72.312C342.974 81.272 341.31 88.184 337.982 93.048C334.718 97.912 329.822 100.344 323.294 100.344C320.03 100.344 317.118 99.544 314.558 97.944C312.062 96.344 310.014 94.52 308.414 92.472V104.568H315.038V120.312H282.11V104.568ZM313.982 83.256C315.838 83.256 317.214 82.776 318.11 81.816C319.07 80.792 319.55 79.224 319.55 77.112V67.512C319.55 65.4 319.07 63.864 318.11 62.904C317.214 61.88 315.838 61.368 313.982 61.368C312.126 61.368 310.718 61.88 309.758 62.904C308.862 63.864 308.414 65.4 308.414 67.512V77.112C308.414 79.224 308.862 80.792 309.758 81.816C310.718 82.776 312.126 83.256 313.982 83.256ZM409.425 83.256V99H379.089V83.256H383.121V67.512C383.121 65.4 382.673 63.864 381.777 62.904C380.881 61.88 379.537 61.368 377.745 61.368C373.905 61.368 371.985 63.416 371.985 67.512V83.256H376.017V99H345.681V83.256H349.905V40.056H345.681V24.312H371.985V53.112C374.353 50.168 376.913 47.96 379.665 46.488C382.417 45.016 385.617 44.28 389.265 44.28C394.577 44.28 398.545 45.944 401.169 49.272C403.857 52.6 405.201 57.176 405.201 63V83.256H409.425ZM417.133 40.344V24.312H436.717V40.344H417.133ZM412.525 99V83.256H416.749V61.368H412.525V45.624H438.829V83.256H443.053V99H412.525ZM469.424 100.344C462.64 100.344 457.52 98.712 454.064 95.448C450.672 92.12 448.976 86.552 448.976 78.744V61.368H444.752V45.624C447.184 45.624 449.008 45.016 450.224 43.8C451.44 42.52 452.048 40.792 452.048 38.616V34.296H472.4V45.624H485.36V61.368H472.4V77.112C472.4 79.224 472.848 80.792 473.744 81.816C474.704 82.776 476.112 83.256 477.968 83.256C480.4 83.256 483.056 82.968 485.936 82.392V97.464C484.144 98.168 481.712 98.808 478.64 99.384C475.632 100.024 472.56 100.344 469.424 100.344ZM517.633 100.344C508.545 100.344 501.441 97.976 496.321 93.24C491.201 88.44 488.641 81.464 488.641 72.312C488.641 63.16 491.201 56.216 496.321 51.48C501.441 46.68 508.545 44.28 517.633 44.28C526.657 44.28 533.153 46.648 537.121 51.384C541.153 56.056 543.169 61.88 543.169 68.856V75.768H512.065V76.344C512.065 78.712 512.769 80.472 514.177 81.624C515.585 82.712 517.921 83.256 521.185 83.256C525.089 83.256 528.801 82.968 532.321 82.392C535.841 81.816 538.913 81.08 541.537 80.184V95.544C539.297 96.76 536.001 97.88 531.649 98.904C527.361 99.864 522.689 100.344 517.633 100.344ZM523.201 65.208V64.056C523.201 61.88 522.721 60.312 521.761 59.352C520.865 58.392 519.489 57.912 517.633 57.912C515.777 57.912 514.369 58.424 513.409 59.448C512.513 60.408 512.065 61.944 512.065 64.056V65.208H523.201ZM548.137 99V83.256H563.113V99H548.137Z" fill="black"/>
</svg>
